<?xml version="1.0" encoding="utf-8"?>
<!-- Generator: Adobe Illustrator 24.0.0, SVG Export Plug-In . SVG Version: 6.00 Build 0)  -->
<svg version="1.1" id="Layer_1" xmlns="http://www.w3.org/2000/svg" xmlns:xlink="http://www.w3.org/1999/xlink" x="0px" y="0px"
	 viewBox="0 0 2000 1500" style="enable-background:new 0 0 2000 1500;" xml:space="preserve">
<style type="text/css">
	.st0{fill:url(#SVGID_1_);}
	.st1{fill:url(#SVGID_2_);}
	.st2{fill:url(#SVGID_3_);}
	.st3{fill:url(#SVGID_4_);}
	.st4{fill:url(#SVGID_5_);}
	.st5{fill:url(#SVGID_6_);}
	.st6{fill:url(#SVGID_7_);}
	.st7{fill:url(#SVGID_8_);}
	.st8{fill:url(#SVGID_9_);}
	.st9{fill:url(#SVGID_10_);}
	.st10{fill:url(#SVGID_11_);}
	.st11{fill:url(#SVGID_12_);}
	.st12{fill:url(#SVGID_13_);}
	.st13{fill:url(#SVGID_14_);}
	.st14{fill:url(#SVGID_15_);}
	.st15{fill:url(#SVGID_16_);}
	.st16{fill:url(#SVGID_17_);}
	.st17{fill:url(#SVGID_18_);}
	.st18{fill:url(#SVGID_19_);}
	.st19{fill:url(#SVGID_20_);}
	.st20{fill:url(#SVGID_21_);}
	.st21{fill:url(#SVGID_22_);}
</style>
<g>
	<g>
		<linearGradient id="SVGID_1_" gradientUnits="userSpaceOnUse" x1="937.7651" y1="897.4034" x2="936.1876" y2="305.8216">
			<stop  offset="4.049120e-07" style="stop-color:#3F00E9"/>
			<stop  offset="1" style="stop-color:#C947FF"/>
		</linearGradient>
		<path class="st0" d="M716.7,497v44.5h-36.3c-1.7,13.1-2.6,26.5-2.6,40c0,28.5,3.9,56,11.3,82.1c67.6-52.9,151.7-108.8,243-161.6
			l8.3-4.8h0c88.9-50.9,176.8-94.2,255.2-125.7c-6.8-7-13.9-13.6-21.3-19.9c-0.1-0.1-0.1-0.1-0.2-0.1c-0.8-0.7-1.6-1.4-2.5-2.1
			c-0.1-0.1-0.2-0.2-0.3-0.3c-0.8-0.6-1.6-1.3-2.4-1.9c-0.1-0.1-0.3-0.2-0.4-0.3c-0.8-0.6-1.5-1.2-2.3-1.8c-0.2-0.1-0.3-0.3-0.5-0.4
			c-0.7-0.6-1.5-1.2-2.2-1.7c-0.2-0.2-0.4-0.3-0.6-0.5c-0.7-0.6-1.5-1.1-2.2-1.7c-0.2-0.2-0.4-0.3-0.7-0.5c-0.7-0.5-1.4-1.1-2.1-1.6
			c-0.3-0.2-0.5-0.4-0.8-0.6c-0.7-0.5-1.4-1-2.1-1.5c-0.3-0.2-0.5-0.4-0.8-0.6c-0.7-0.5-1.4-1-2.1-1.5c-0.3-0.2-0.6-0.4-0.9-0.6
			c-0.7-0.5-1.4-0.9-2.1-1.4c-0.3-0.2-0.6-0.4-0.9-0.6c-0.7-0.5-1.3-0.9-2-1.4c-0.3-0.2-0.7-0.4-1-0.6c-0.7-0.4-1.3-0.9-2-1.3
			c-0.3-0.2-0.7-0.4-1-0.7c-0.7-0.4-1.3-0.8-2-1.3c-0.4-0.2-0.7-0.4-1.1-0.7c-0.7-0.4-1.3-0.8-2-1.2l-1.1-0.7
			c-0.7-0.4-1.3-0.8-2-1.2c-0.4-0.2-0.8-0.5-1.1-0.7c-0.6-0.4-1.3-0.8-2-1.1c-0.4-0.2-0.8-0.5-1.2-0.7c-0.6-0.4-1.3-0.7-1.9-1.1
			c-0.4-0.2-0.8-0.5-1.2-0.7c-0.6-0.4-1.3-0.7-1.9-1.1c-0.4-0.2-0.8-0.5-1.2-0.7c-0.6-0.3-1.3-0.7-1.9-1c-0.4-0.2-0.8-0.4-1.3-0.7
			c-0.6-0.3-1.3-0.7-1.9-1c-0.4-0.2-0.8-0.4-1.3-0.7c-0.6-0.3-1.3-0.7-1.9-1c-0.4-0.2-0.9-0.4-1.3-0.7c-0.6-0.3-1.3-0.6-1.9-0.9
			c-0.4-0.2-0.9-0.4-1.3-0.7c-0.6-0.3-1.3-0.6-1.9-0.9c-0.5-0.2-0.9-0.4-1.4-0.6c-0.6-0.3-1.3-0.6-1.9-0.9c-0.5-0.2-0.9-0.4-1.4-0.6
			c-0.6-0.3-1.3-0.6-1.9-0.9c-0.5-0.2-0.9-0.4-1.4-0.6c-0.6-0.3-1.3-0.6-1.9-0.8c-0.5-0.2-0.9-0.4-1.4-0.6c-0.6-0.3-1.3-0.5-1.9-0.8
			c-0.5-0.2-1-0.4-1.5-0.6c-0.6-0.3-1.3-0.5-1.9-0.8c-0.5-0.2-1-0.4-1.5-0.6c-0.6-0.3-1.3-0.5-1.9-0.8c-0.5-0.2-1-0.4-1.5-0.6
			c-0.6-0.3-1.3-0.5-1.9-0.7c-0.5-0.2-1-0.4-1.5-0.6c-0.6-0.2-1.3-0.5-1.9-0.7c-0.5-0.2-1-0.4-1.5-0.5c-0.6-0.2-1.3-0.5-1.9-0.7
			c-0.5-0.2-1-0.4-1.5-0.5c-0.6-0.2-1.3-0.4-1.9-0.7c-0.5-0.2-1-0.3-1.6-0.5c-0.6-0.2-1.3-0.4-1.9-0.6c-0.5-0.2-1-0.3-1.6-0.5
			c-0.6-0.2-1.3-0.4-1.9-0.6c-0.5-0.2-1.1-0.3-1.6-0.5c-0.6-0.2-1.3-0.4-1.9-0.6c-0.5-0.2-1.1-0.3-1.6-0.5c-0.6-0.2-1.3-0.4-1.9-0.6
			c-0.5-0.1-1.1-0.3-1.6-0.4c-0.6-0.2-1.3-0.4-1.9-0.5c-0.5-0.1-1.1-0.3-1.6-0.4c-0.6-0.2-1.3-0.3-2-0.5c-0.5-0.1-1.1-0.3-1.6-0.4
			c-0.7-0.2-1.3-0.3-2-0.5c-0.6-0.1-1.1-0.3-1.7-0.4c-0.6-0.2-1.3-0.3-1.9-0.4c-0.6-0.1-1.1-0.3-1.7-0.4c-0.6-0.1-1.3-0.3-2-0.4
			c-0.6-0.1-1.1-0.2-1.7-0.4c-0.6-0.1-1.3-0.3-1.9-0.4c-0.6-0.1-1.1-0.2-1.7-0.3c-0.7-0.1-1.3-0.3-2-0.4l-1.7-0.3
			c-0.7-0.1-1.3-0.2-2-0.4c-0.6-0.1-1.2-0.2-1.7-0.3c-0.7-0.1-1.3-0.2-2-0.3c-0.6-0.1-1.2-0.2-1.8-0.3c-0.7-0.1-1.3-0.2-2-0.3
			c-0.6-0.1-1.2-0.2-1.8-0.3c-0.7-0.1-1.3-0.2-2-0.3c-0.6-0.1-1.2-0.2-1.8-0.2c-0.7-0.1-1.3-0.2-2-0.3c-0.6-0.1-1.2-0.1-1.8-0.2
			c-0.7-0.1-1.3-0.2-2-0.2c-0.6-0.1-1.2-0.1-1.8-0.2c-0.7-0.1-1.3-0.1-2-0.2c-0.6-0.1-1.2-0.1-1.8-0.2c-0.6-0.1-1.3-0.1-1.9-0.2
			c-0.6-0.1-1.2-0.1-1.9-0.2c-0.6-0.1-1.3-0.1-1.9-0.2c-0.6,0-1.2-0.1-1.9-0.1c-0.6-0.1-1.3-0.1-1.9-0.1c-0.6,0-1.3-0.1-1.9-0.1
			c-0.6,0-1.3-0.1-1.9-0.1c-0.7,0-1.3-0.1-2-0.1c-0.6,0-1.2-0.1-1.8-0.1c-0.7,0-1.4,0-2.1-0.1c-0.6,0-1.2,0-1.7-0.1
			c-0.8,0-1.6,0-2.4,0c-0.5,0-0.9,0-1.4,0c-1.2,0-2.5,0-3.7,0h-0.2c-37,0-72.5,6.7-105.2,18.9v-6.1h-34.4v21.4
			c11.1-5.8,22.6-11,34.4-15.4v28.4h-34.4v-13c-11,5.7-21.5,12.1-31.6,19.1v99.7h-91.2c-11.2,19.8-20.3,41.6-26.8,63.9H716.7z
			 M870.9,405.7h20.4v20.4h-20.4V405.7z M840.5,375.5h30.6v30.6h-30.6V375.5z M814.4,458.5h42.7v42.7h-42.7V458.5z M716.7,455.2
			h41.8V497h-41.8V455.2z"/>
		<linearGradient id="SVGID_2_" gradientUnits="userSpaceOnUse" x1="1000.7397" y1="897.2355" x2="999.1622" y2="305.6537">
			<stop  offset="4.049120e-07" style="stop-color:#3F00E9"/>
			<stop  offset="1" style="stop-color:#C947FF"/>
		</linearGradient>
		<path class="st1" d="M787.4,836.4c-8.5-6.5-16.8-13.3-24.6-20.6c-39.6,9-66.4,7.9-74.1-5.5c-6.7-11.7,1.8-31.3,22.5-55.9
			c3.5-4.1,7.3-8.4,11.4-12.8c0.2-0.2,0.4-0.4,0.6-0.7c6.4,10.3,13.5,20.2,21.1,29.7c2.9,3.6,6,7.2,9,10.7
			c18.8,21.2,41.1,40.1,65,55.3c0.2,0.1,0.4,0.2,0.5,0.3c0.8,0.5,1.7,1,2.5,1.5c0.2,0.1,0.4,0.2,0.6,0.4c0.8,0.5,1.6,1,2.4,1.5
			c0.2,0.1,0.4,0.3,0.6,0.4c0.8,0.5,1.6,1,2.4,1.4c0.2,0.1,0.5,0.3,0.7,0.4c0.8,0.5,1.6,0.9,2.4,1.4c0.2,0.1,0.5,0.3,0.7,0.4
			c0.8,0.4,1.6,0.9,2.4,1.3c0.3,0.2,0.5,0.3,0.8,0.4c0.8,0.4,1.6,0.8,2.3,1.3c0.3,0.1,0.6,0.3,0.8,0.4c0.8,0.4,1.6,0.8,2.3,1.2
			c0.3,0.2,0.6,0.3,0.9,0.5c0.8,0.4,1.5,0.8,2.3,1.2c0.3,0.2,0.6,0.3,0.9,0.5c0.2,0.1,0.3,0.2,0.5,0.3c0.6,0.3,1.2,0.6,1.8,0.9
			c0.3,0.2,0.6,0.3,0.9,0.5c0.8,0.4,1.5,0.7,2.3,1.1c0.3,0.2,0.7,0.3,1,0.5c0.8,0.4,1.5,0.7,2.3,1.1c0.3,0.2,0.7,0.3,1,0.5
			c0.8,0.3,1.5,0.7,2.3,1c0.3,0.2,0.7,0.3,1,0.5c0.8,0.3,1.5,0.7,2.3,1c0.4,0.2,0.7,0.3,1.1,0.5c0.7,0.3,1.5,0.6,2.3,1
			c0.4,0.2,0.7,0.3,1.1,0.5c0.7,0.3,1.5,0.6,2.2,0.9c0.4,0.1,0.8,0.3,1.1,0.5c0.7,0.3,1.5,0.6,2.2,0.9c0.4,0.2,0.8,0.3,1.2,0.5
			c0.7,0.3,1.5,0.6,2.2,0.8c0.4,0.1,0.8,0.3,1.2,0.4c0.7,0.3,1.5,0.5,2.2,0.8c0.4,0.1,0.8,0.3,1.2,0.4c0.7,0.3,1.5,0.5,2.2,0.8
			c0.4,0.1,0.8,0.3,1.3,0.4c0.7,0.2,1.5,0.5,2.2,0.7c0.4,0.1,0.9,0.3,1.3,0.4c0.7,0.2,1.5,0.5,2.2,0.7c0.4,0.1,0.9,0.3,1.3,0.4
			c0.7,0.2,1.5,0.5,2.2,0.7c0.4,0.1,0.9,0.3,1.3,0.4c0.7,0.2,1.5,0.4,2.2,0.7c0.4,0.1,0.9,0.3,1.3,0.4c0.7,0.2,1.4,0.4,2.2,0.6
			c0.5,0.1,0.9,0.3,1.4,0.4c0.7,0.2,1.4,0.4,2.2,0.6c0.5,0.1,0.9,0.3,1.4,0.4c0.7,0.2,1.4,0.4,2.2,0.6c0.5,0.1,1,0.2,1.4,0.4
			c0.7,0.2,1.4,0.4,2.2,0.5c0.5,0.1,1,0.2,1.4,0.3c0.7,0.2,1.4,0.3,2.2,0.5c0.5,0.1,1,0.2,1.5,0.3c0.7,0.2,1.4,0.3,2.1,0.5
			c0.5,0.1,1,0.2,1.5,0.3c0.7,0.1,1.4,0.3,2.1,0.4c0.5,0.1,1,0.2,1.5,0.3c0.7,0.1,1.4,0.3,2.1,0.4c0.5,0.1,1,0.2,1.6,0.3
			c0.7,0.1,1.4,0.3,2.1,0.4c0.5,0.1,1.1,0.2,1.6,0.3c0.7,0.1,1.4,0.2,2.1,0.4c0.5,0.1,1.1,0.2,1.6,0.3c0.7,0.1,1.4,0.2,2.1,0.3
			c0.5,0.1,1.1,0.2,1.6,0.2c0.7,0.1,1.4,0.2,2.1,0.3c0.5,0.1,1.1,0.1,1.6,0.2c0.7,0.1,1.4,0.2,2.1,0.3c0.6,0.1,1.1,0.1,1.7,0.2
			c0.7,0.1,1.4,0.2,2.1,0.2c0.6,0.1,1.1,0.1,1.7,0.2c0.7,0.1,1.4,0.1,2.1,0.2c0.6,0.1,1.2,0.1,1.7,0.2c0.7,0.1,1.4,0.1,2,0.2
			c0.6,0.1,1.2,0.1,1.8,0.1c0.7,0.1,1.4,0.1,2,0.2c0.6,0,1.2,0.1,1.8,0.1c0.7,0,1.3,0.1,2,0.1c0.6,0,1.2,0.1,1.8,0.1
			c0.7,0,1.3,0.1,2,0.1c0.6,0,1.3,0.1,1.9,0.1c0.6,0,1.3,0.1,1.9,0.1c0.7,0,1.4,0,2,0.1c0.6,0,1.2,0,1.8,0.1c0.8,0,1.6,0,2.4,0.1
			c0.5,0,1,0,1.4,0c1.2,0,2.4,0,3.7,0h0.2c83.3,0,158.6-33.8,213.2-88.3c21.9-21.9,40.5-47.2,54.9-75l0.2,0c0,0-0.1-0.3-0.1-0.3
			c0-1.7,2.5-4.9,3.2-6.4c1.2-2.5,2.4-5.1,3.6-7.7c2.2-5,4.4-10,6.3-15.1c4-10.3,7.4-20.8,10.2-31.4c5.7-21.6,9-43.8,9.8-66.2
			c1.4-36.4-3.9-73-15.6-107.6c-1.3-3.9-2.7-7.9-4.2-11.7c-0.1-0.2-0.2-0.4-0.2-0.6c0,0,0,0,0,0c-0.4-1.1-0.9-2.2-1.3-3.4
			c0,0,0,0,0,0c-0.4-1.1-0.9-2.2-1.4-3.3c0,0,0,0,0,0c-0.5-1.1-0.9-2.2-1.4-3.3c0,0,0,0,0,0c-0.5-1.1-0.9-2.2-1.4-3.3c0,0,0,0,0,0
			c-0.5-1.1-1-2.2-1.5-3.3c0,0,0,0,0,0c-0.5-1.1-1-2.1-1.5-3.2c0,0,0,0,0,0c-0.5-1.1-1-2.1-1.5-3.2c0,0,0,0,0,0
			c-0.5-1.1-1-2.1-1.6-3.2c0,0,0,0,0,0c-0.5-1.1-1.1-2.1-1.6-3.2c0,0,0,0,0,0c-0.5-1-1-2-1.6-3c0.8-0.2,1.6-0.4,2.4-0.5
			c6-1.3,11.6-2.4,17-3.3c29.4-4.7,49.2-2.1,55.7,9.1c7.5,12.9-3.8,35.4-29.2,63.6c2.4,10.6,4.4,21.4,5.7,32.4
			c97.5-77.4,151.9-142.7,135.4-171.3c-15.5-26.8-89.8-15.8-194,23.1c-5.3,2-10.6,4-16.1,6.1c-0.8,0.3-1.5,0.6-2.3,0.9
			c-78.7,30.8-172.6,76.4-270.3,132.8c-96.8,55.9-182.5,113.9-248.3,166.3c-0.2,0.2-0.5,0.4-0.7,0.6c-4.6,3.6-9,7.2-13.4,10.8
			c-87.8,71.9-135.6,131.8-120,158.9C584.2,898.5,669.7,883.4,787.4,836.4z M950.1,848.3L950.1,848.3l-0.1,0c-0.4,0-0.8-0.1-1.1-0.1
			l-0.2,0l-0.2,0c-0.3,0-0.6-0.1-0.9-0.1l-0.8-0.1l-0.9-0.1l-0.5-0.1l-0.9-0.1l-1-0.1c-0.3,0-0.6-0.1-0.9-0.1
			c-0.2,0-0.3-0.1-0.5-0.1c-0.3,0-0.5-0.1-0.8-0.1c-0.4-0.1-0.8-0.1-1.3-0.2l-0.6-0.1c-0.3,0-0.5-0.1-0.8-0.1
			c-0.2,0-0.4-0.1-0.7-0.1c-0.4-0.1-0.8-0.1-1.2-0.2l-0.2,0c-0.3-0.1-0.6-0.1-0.9-0.1l-0.1,0l-0.1,0l-0.3,0c-0.5-0.1-1-0.2-1.5-0.3
			l-0.2,0l-0.6-0.1c-0.2,0-0.3-0.1-0.5-0.1l-0.2,0l-0.2,0c-0.3-0.1-0.6-0.1-0.9-0.2c-0.3-0.1-0.7-0.1-1-0.2
			c-0.3-0.1-0.6-0.1-0.8-0.2l-0.5-0.1l0,0l0,0c-0.6-0.1-1.2-0.2-1.7-0.3l-0.1,0l-0.1,0c-0.4-0.1-0.8-0.2-1.2-0.2l-0.2,0
			c-0.6-0.1-1.2-0.2-1.8-0.4l-0.6-0.1l-0.6-0.1l-0.9-0.2l-1.1-0.2l-0.1,0l-0.1,0c-0.3-0.1-0.6-0.1-1-0.2c-0.6-0.1-1.2-0.3-1.9-0.4
			l-0.3-0.1l-0.3-0.1c-0.3-0.1-0.6-0.1-0.9-0.2c-0.3-0.1-0.7-0.2-1-0.3l-0.8-0.2c-0.5-0.1-1-0.3-1.6-0.4c-0.4-0.1-0.9-0.2-1.3-0.3
			l-0.3-0.1c-0.5-0.1-0.9-0.2-1.4-0.4l-0.1,0c-0.6-0.2-1.2-0.3-1.8-0.5l-0.1,0l-0.1,0L907,840c-0.2-0.1-0.5-0.1-0.7-0.2
			c-0.6-0.2-1.2-0.3-1.8-0.5l-1.2-0.4c-0.6-0.2-1.2-0.4-1.9-0.6l-0.1-0.1l-0.2,0c-0.3-0.1-0.7-0.2-1-0.3l-0.1,0
			c-0.6-0.2-1.2-0.4-1.8-0.6l-0.2-0.1l-0.2-0.1c-0.3-0.1-0.6-0.2-0.9-0.3l0,0l0,0c-0.6-0.2-1.2-0.4-1.9-0.6l-0.6-0.2l-0.5-0.2
			c-0.6-0.2-1.3-0.4-1.9-0.6c-0.2-0.1-0.4-0.1-0.6-0.2l-0.5-0.2l-0.5-0.2c-0.5-0.2-0.9-0.3-1.4-0.5l-0.3-0.1l-0.3-0.1
			c-0.1,0-0.3-0.1-0.4-0.1l-0.3-0.1c-0.6-0.2-1.2-0.4-1.8-0.7l-1.1-0.4l-1-0.4l-1-0.4c-0.2-0.1-0.4-0.1-0.6-0.2l-0.2-0.1l-0.2-0.1
			c-0.6-0.2-1.2-0.5-1.8-0.7l-0.2-0.1l-0.2-0.1l-0.3-0.1c-0.2-0.1-0.4-0.2-0.6-0.2l-0.6-0.2c-0.4-0.2-0.7-0.3-1.1-0.5l-0.2-0.1
			l-0.2-0.1l-0.3-0.1c-0.2-0.1-0.5-0.2-0.7-0.3l-0.9-0.4l-1.1-0.5l-0.4-0.2L873,828l-0.2-0.1l-0.2-0.1c-0.6-0.3-1.2-0.5-1.8-0.8
			c-0.4-0.2-0.7-0.3-1.1-0.5l-0.8-0.4l-1-0.5l-0.1,0c-0.3-0.2-0.7-0.3-1-0.5c-0.6-0.3-1.3-0.6-1.9-0.9l-0.3-0.1l-0.1-0.1l-0.2-0.1
			l-0.2-0.1l-0.2-0.1c-0.6-0.3-1.2-0.6-1.8-0.9c-0.2-0.1-0.4-0.2-0.6-0.3l-0.1-0.1l-0.2-0.1l-0.2-0.1c-0.5-0.2-1-0.5-1.5-0.7
			l-0.1-0.1c-0.2-0.1-0.4-0.2-0.6-0.3l-0.1,0c-0.2-0.1-0.4-0.2-0.6-0.3c-0.4-0.2-0.8-0.4-1.2-0.6c-0.2-0.1-0.4-0.2-0.6-0.3l-0.3-0.1
			l-0.1-0.1l-0.1,0c-0.2-0.1-0.3-0.2-0.5-0.3c-0.6-0.3-1.3-0.7-1.9-1l-0.1-0.1l-0.1-0.1l-0.2-0.1c-0.2-0.1-0.3-0.2-0.5-0.2l-1.1-0.6
			l-1-0.5c-0.1-0.1-0.2-0.1-0.3-0.1l-0.2-0.2l-0.4-0.2c-0.4-0.2-0.7-0.4-1.1-0.6c-0.2-0.1-0.5-0.3-0.7-0.4c-0.2-0.1-0.5-0.3-0.7-0.4
			l-0.6-0.3c-0.5-0.3-1-0.6-1.5-0.9l-0.2-0.1l-0.1-0.1l-0.2-0.1l-0.1-0.1l-0.1-0.1c-0.7-0.4-1.4-0.8-2.1-1.2l-0.2-0.1c0,0,0,0-0.1,0
			l-0.2-0.1l-0.2-0.1c-0.7-0.4-1.4-0.8-2-1.2l-0.2-0.2l-0.1-0.1l-0.2-0.1l-0.2-0.1c-0.6-0.4-1.2-0.8-1.9-1.2
			c-0.2-0.2-0.5-0.3-0.8-0.5l-2-1.3c-0.2-0.1-0.4-0.2-0.6-0.4l0,0l0,0c-0.7-0.4-1.4-0.9-2-1.3c-0.1,0-0.1-0.1-0.1-0.1l-0.1-0.1
			l-0.4-0.3c-0.7-0.4-1.3-0.9-2-1.3c-0.2-0.1-0.4-0.3-0.7-0.5l-0.4-0.3c-0.6-0.4-1.1-0.8-1.7-1.2l-0.1-0.1l0,0l-0.5-0.3
			c-0.7-0.5-1.3-0.9-2-1.4c-0.1-0.1-0.2-0.1-0.2-0.2c-0.3-0.2-0.6-0.4-0.9-0.6l22.4-43.9c1.5,0.2,3.1,0.4,4.7,0.4
			c17.4,0,31.5-14.1,31.5-31.5l57.2-19c3.7,5.2,8.9,9.3,15.1,11.5L950.1,848.3z M833.7,724.1c0-2.3,0.5-4.4,1.3-6.3
			c2.4-5.6,8-9.4,14.4-9.4c1.1,0,2.2,0.1,3.3,0.3c1.8,0.4,3.6,1.1,5.1,2.1c4.4,2.8,7.3,7.7,7.3,13.3c0,2-0.4,3.9-1,5.6
			c-1.9,4.9-6.2,8.7-11.4,9.8c-1.1,0.2-2.2,0.4-3.3,0.4c-6.5,0-12-3.9-14.4-9.4C834.2,728.5,833.7,726.4,833.7,724.1z M970.5,829.8
			l2.7-112.6c9.2-2.8,16.6-9.7,20.1-18.6l67.9,5.6h0c0.9,3.1,2.3,5.9,4.1,8.5L970.5,829.8z M1168.9,771.3
			c-24.7,24.6-53.3,44-85.3,57.5c-32.9,13.9-67.8,21-103.8,21.1l101.2-124.9c3.2,1.1,6.7,1.7,10.3,1.7c12.4,0,23.1-7.2,28.3-17.6
			l91.3,7.6C1199.4,736.6,1185.2,755,1168.9,771.3z M1075.7,695.2c0-3.5,1.2-6.8,3.1-9.4c2.4-3.2,5.9-5.4,10-6.1
			c0.8-0.1,1.7-0.2,2.6-0.2c6.1,0,11.4,3.5,14,8.5c0.3,0.5,0.5,1,0.7,1.6c0.7,1.7,1,3.7,1,5.6c0,5-2.4,9.5-6,12.4
			c-2.4,1.9-5.4,3.1-8.6,3.3c-0.4,0-0.7,0-1.1,0c-4.6,0-8.8-2-11.6-5.1c-1.7-1.8-2.9-4-3.6-6.5
			C1075.8,698,1075.7,696.6,1075.7,695.2z M1122.4,689.3c-1.1-6-3.9-11.4-8-15.7l42.7-81.8c1.6,0.3,3.3,0.4,5,0.4
			c1.2,0,2.4-0.1,3.5-0.2l49.2,105L1122.4,689.3z M1146.4,560.7c0-2.3,0.5-4.6,1.4-6.6c1.1-2.5,2.9-4.6,5-6.2h0c2.6-1.9,5.8-3,9.3-3
			c1.2,0,2.4,0.1,3.6,0.4c1.5,0.3,2.8,0.9,4.1,1.6c4.8,2.7,8.1,7.8,8.1,13.8c0,1.9-0.3,3.7-0.9,5.3c-0.2,0.6-0.4,1.1-0.7,1.6
			c-2.1,4.3-6.1,7.5-11,8.5c0,0,0,0,0,0c-1,0.2-2.1,0.3-3.2,0.3c-1.4,0-2.7-0.2-4-0.5c-4.4-1.1-8.1-4.2-10.1-8.2
			c-0.1-0.3-0.3-0.6-0.4-0.8C1146.9,565,1146.4,562.9,1146.4,560.7z M1245.9,556.3c1.3,13.7,1.6,27.6,0.8,41.3
			c-1.6,28-7.6,55.8-17.9,82.2l-45.1-96.3c5.4-5.1,9-12.1,9.7-19.9L1245.9,556.3z M1212.6,449.2c1.2-0.4,10.7,21.9,11.7,24.1
			c9,20.3,15.3,41.6,19,63.2l-54.3,7.6c-5.5-9-15.5-15-26.9-15c-1.4,0-2.8,0.1-4.1,0.3l-24.5-50.7
			C1162.3,466.5,1189,456.6,1212.6,449.2z M1115.2,486.7l24.9,51.5c-2.7,2.6-4.9,5.7-6.5,9.1l-131-4.6
			C1042,521.2,1080,502.3,1115.2,486.7z M974,561.6l157.4,5.6c1.2,5.9,4.1,11.2,8.2,15.4l-42.6,81.6c-1.8-0.3-3.6-0.5-5.5-0.5
			c-13.6,0-25.2,8.6-29.6,20.6l-67.5-5.6c-2.8-10.1-10.5-18.2-20.4-21.5V561.6z M974,674.8c0.8,0.7,1.6,1.5,2.3,2.3
			c2.2,2.7,3.5,6.1,3.5,9.9c0,3.8-1.4,7.4-3.7,10.1c-0.7,0.9-1.5,1.7-2.4,2.4c-2.7,2.1-6,3.3-9.6,3.3c-3.5,0-6.7-1.1-9.3-3.1
			c-0.3-0.2-0.6-0.5-0.9-0.8c-3.4-2.9-5.5-7.2-5.5-11.9c0-2.4,0.5-4.6,1.5-6.7c1-2.2,2.5-4.1,4.3-5.5c2.7-2.2,6.2-3.5,10-3.5
			C967.8,671.3,971.2,672.6,974,674.8z M954,570.3v86.9c-12.2,4.1-21.1,15.4-21.5,28.9l-57.8,19.2c-5.7-7.7-14.9-12.6-25.2-12.6
			c-1.6,0-3.2,0.1-4.7,0.4L825,654.5C862.7,627,906.3,598.3,954,570.3z M808.8,666.6l18.2,35.5c-5.6,5.7-9,13.5-9,22.1
			c0,8.6,3.4,16.4,9,22.1l-20.7,40.5c-0.5-0.4-1-0.8-1.5-1.3l0,0l0,0c-5.1-4.4-10.1-9-14.9-13.8c-4-4-7.9-8.1-11.6-12.3
			c-2.8-3.1-5.5-6.3-8-9.5c-0.8-1-1.5-1.9-2.3-2.9c-5.9-7.6-11.5-15.5-16.5-23.6c-1.3-2.1-2.6-4.2-3.8-6.3
			C765,701.2,785.6,684.2,808.8,666.6z"/>
		<linearGradient id="SVGID_3_" gradientUnits="userSpaceOnUse" x1="759.3873" y1="897.8791" x2="757.8097" y2="306.2973">
			<stop  offset="4.049120e-07" style="stop-color:#3F00E9"/>
			<stop  offset="1" style="stop-color:#C947FF"/>
		</linearGradient>
		<polygon class="st2" points="790,415.2 790,351.3 784.5,351.3 726.1,351.3 726.1,415.2 727.7,415.2 		"/>
		<linearGradient id="SVGID_4_" gradientUnits="userSpaceOnUse" x1="703.2317" y1="898.0288" x2="701.6542" y2="306.447">
			<stop  offset="4.049120e-07" style="stop-color:#3F00E9"/>
			<stop  offset="1" style="stop-color:#C947FF"/>
		</linearGradient>
		<rect x="677.7" y="303.5" class="st3" width="48" height="48"/>
		<linearGradient id="SVGID_5_" gradientUnits="userSpaceOnUse" x1="770.3634" y1="897.8498" x2="768.7859" y2="306.268">
			<stop  offset="4.049120e-07" style="stop-color:#3F00E9"/>
			<stop  offset="1" style="stop-color:#C947FF"/>
		</linearGradient>
		<rect x="751.6" y="300.8" class="st4" width="34.4" height="34.4"/>
		<linearGradient id="SVGID_6_" gradientUnits="userSpaceOnUse" x1="701.7751" y1="898.0327" x2="700.1976" y2="306.4509">
			<stop  offset="4.049120e-07" style="stop-color:#3F00E9"/>
			<stop  offset="1" style="stop-color:#C947FF"/>
		</linearGradient>
		<rect x="684.2" y="400.7" class="st5" width="32.6" height="32.6"/>
		<linearGradient id="SVGID_7_" gradientUnits="userSpaceOnUse" x1="681.0162" y1="898.0881" x2="679.4387" y2="306.5063">
			<stop  offset="4.049120e-07" style="stop-color:#3F00E9"/>
			<stop  offset="1" style="stop-color:#C947FF"/>
		</linearGradient>
		<path class="st6" d="M670.1,497v44.5h10.2c2-15.4,5.2-29.9,9.5-44.5H670.1z"/>
		<linearGradient id="SVGID_8_" gradientUnits="userSpaceOnUse" x1="827.4679" y1="897.6975" x2="825.8903" y2="306.1157">
			<stop  offset="4.049120e-07" style="stop-color:#3F00E9"/>
			<stop  offset="1" style="stop-color:#C947FF"/>
		</linearGradient>
		<rect x="812.1" y="266.3" class="st7" width="27.5" height="27.5"/>
		<linearGradient id="SVGID_9_" gradientUnits="userSpaceOnUse" x1="1257.0475" y1="896.552" x2="1255.47" y2="304.9702">
			<stop  offset="4.049120e-07" style="stop-color:#3F00E9"/>
			<stop  offset="1" style="stop-color:#C947FF"/>
		</linearGradient>
		<circle class="st8" cx="1255.4" cy="275.6" r="40.6"/>
		<linearGradient id="SVGID_10_" gradientUnits="userSpaceOnUse" x1="793.8939" y1="897.787" x2="792.3163" y2="306.2053">
			<stop  offset="4.049120e-07" style="stop-color:#3F00E9"/>
			<stop  offset="1" style="stop-color:#C947FF"/>
		</linearGradient>
		<circle class="st9" cx="793.9" cy="910.5" r="33.1"/>
	</g>
	<g>
		<linearGradient id="SVGID_11_" gradientUnits="userSpaceOnUse" x1="654.9435" y1="1228.2332" x2="1330.4541" y2="1292.3766">
			<stop  offset="4.049120e-07" style="stop-color:#3F00E9"/>
			<stop  offset="1" style="stop-color:#C947FF"/>
		</linearGradient>
		<path class="st10" d="M691,1228.7c-2.8-1.3-6.4-2.6-10.8-3.9c-3.2-1-5.7-1.8-7.5-2.6c-1.8-0.7-3.3-1.7-4.5-2.9
			c-1.2-1.2-1.8-2.7-1.8-4.5c0-2.6,0.8-4.6,2.4-5.9c1.6-1.4,3.7-2,6.4-2c3,0,5.5,0.8,7.3,2.3c1.8,1.5,2.8,3.4,3,5.8h14.9
			c-0.5-6.1-2.9-10.8-7.2-14.2c-4.4-3.4-10-5.1-17-5.1c-4.7,0-8.8,0.8-12.4,2.4c-3.6,1.6-6.4,3.9-8.4,6.8c-2,3-3,6.5-3,10.5
			c0,4.3,1,7.7,3,10.2c2,2.6,4.3,4.5,7.1,5.7c2.8,1.3,6.3,2.5,10.7,3.8c3.2,0.9,5.8,1.7,7.6,2.5c1.8,0.7,3.4,1.8,4.6,3.1
			c1.2,1.3,1.8,2.9,1.8,5c0,2.5-0.9,4.5-2.7,6c-1.8,1.5-4.3,2.3-7.5,2.3c-3.1,0-5.5-0.8-7.3-2.4c-1.8-1.6-2.8-3.8-3-6.6H652
			c0.1,4.1,1.2,7.7,3.4,10.8c2.2,3,5.2,5.4,9,7c3.8,1.6,8,2.4,12.8,2.4c5,0,9.3-0.9,12.9-2.8c3.6-1.8,6.4-4.3,8.3-7.4
			c1.9-3.1,2.8-6.5,2.8-10.1c0-4.2-1-7.6-3-10.2C696.1,1231.9,693.8,1230,691,1228.7z"/>
		<linearGradient id="SVGID_12_" gradientUnits="userSpaceOnUse" x1="655.958" y1="1217.5498" x2="1331.4686" y2="1281.6932">
			<stop  offset="4.049120e-07" style="stop-color:#3F00E9"/>
			<stop  offset="1" style="stop-color:#C947FF"/>
		</linearGradient>
		<polygon class="st11" points="757.9,1207.5 775.9,1207.5 775.9,1264.3 789.5,1264.3 789.5,1207.5 807.6,1207.5 807.6,1196.6 
			757.9,1196.6 		"/>
		<linearGradient id="SVGID_13_" gradientUnits="userSpaceOnUse" x1="656.9458" y1="1207.1473" x2="1332.4563" y2="1271.2908">
			<stop  offset="4.049120e-07" style="stop-color:#3F00E9"/>
			<stop  offset="1" style="stop-color:#C947FF"/>
		</linearGradient>
		<path class="st12" d="M906.9,1238.5c0,4.6-1.2,8.1-3.6,10.5c-2.4,2.4-5.8,3.6-10.2,3.6c-4.3,0-7.7-1.2-10.1-3.6
			c-2.4-2.4-3.6-5.9-3.6-10.5v-41.9h-13.6v41.8c0,5.8,1.2,10.6,3.6,14.6c2.4,4,5.6,7,9.8,9c4.1,2,8.7,3,13.7,3c5.1,0,9.8-1,13.9-3
			c4.2-2,7.5-5,10-9c2.5-4,3.7-8.8,3.7-14.6v-41.8h-13.7V1238.5z"/>
		<linearGradient id="SVGID_14_" gradientUnits="userSpaceOnUse" x1="657.7767" y1="1198.3969" x2="1333.2872" y2="1262.5403">
			<stop  offset="4.049120e-07" style="stop-color:#3F00E9"/>
			<stop  offset="1" style="stop-color:#C947FF"/>
		</linearGradient>
		<path class="st13" d="M1024.7,1200.7c-5.4-2.8-11.7-4.2-18.8-4.2h-23.7v67.8h23.7c7.1,0,13.4-1.4,18.8-4.2
			c5.4-2.8,9.6-6.7,12.5-11.8c2.9-5.1,4.4-11,4.4-17.8c0-6.8-1.5-12.8-4.4-17.9C1034.2,1207.5,1030.1,1203.5,1024.7,1200.7z
			 M1021.9,1246.9c-3.9,3.9-9.4,5.8-16.5,5.8h-9.6V1208h9.6c7.1,0,12.6,2,16.5,6c3.9,4,5.8,9.5,5.8,16.6
			C1027.7,1237.6,1025.8,1243.1,1021.9,1246.9z"/>
		<linearGradient id="SVGID_15_" gradientUnits="userSpaceOnUse" x1="658.7763" y1="1187.8695" x2="1334.2869" y2="1252.0129">
			<stop  offset="4.049120e-07" style="stop-color:#3F00E9"/>
			<stop  offset="1" style="stop-color:#C947FF"/>
		</linearGradient>
		<rect x="1100.3" y="1196.6" class="st14" width="13.6" height="67.8"/>
		<linearGradient id="SVGID_16_" gradientUnits="userSpaceOnUse" x1="659.6854" y1="1178.2963" x2="1335.1959" y2="1242.4397">
			<stop  offset="4.049120e-07" style="stop-color:#3F00E9"/>
			<stop  offset="1" style="stop-color:#C947FF"/>
		</linearGradient>
		<path class="st15" d="M1224.8,1200.1c-5.3-3-11.1-4.5-17.5-4.5c-6.3,0-12.2,1.5-17.5,4.5c-5.3,3-9.5,7.1-12.6,12.4
			c-3.1,5.3-4.7,11.2-4.7,17.8c0,6.7,1.6,12.6,4.7,17.9c3.1,5.3,7.3,9.4,12.6,12.4c5.3,3,11.1,4.5,17.5,4.5c6.3,0,12.2-1.5,17.5-4.5
			c5.3-3,9.5-7.1,12.6-12.4c3.1-5.3,4.6-11.2,4.6-17.9c0-6.6-1.5-12.5-4.6-17.8C1234.3,1207.2,1230.1,1203,1224.8,1200.1z
			 M1225.4,1242.2c-1.7,3.4-4.2,6.1-7.3,7.9c-3.1,1.8-6.7,2.8-10.8,2.8c-4.1,0-7.7-0.9-10.8-2.8c-3.1-1.8-5.6-4.5-7.3-7.9
			c-1.7-3.4-2.6-7.4-2.6-11.9c0-4.5,0.9-8.5,2.6-11.9c1.7-3.4,4.2-6,7.3-7.8c3.1-1.8,6.7-2.7,10.8-2.7c4.1,0,7.7,0.9,10.8,2.7
			c3.1,1.8,5.5,4.4,7.3,7.8c1.7,3.4,2.6,7.4,2.6,11.9C1228,1234.8,1227.1,1238.8,1225.4,1242.2z"/>
		<linearGradient id="SVGID_17_" gradientUnits="userSpaceOnUse" x1="660.7233" y1="1167.3654" x2="1336.2339" y2="1231.5088">
			<stop  offset="4.049120e-07" style="stop-color:#3F00E9"/>
			<stop  offset="1" style="stop-color:#C947FF"/>
		</linearGradient>
		<path class="st16" d="M1337.8,1228.7c-2.8-1.3-6.4-2.6-10.8-3.9c-3.2-1-5.7-1.8-7.5-2.6c-1.8-0.7-3.3-1.7-4.5-2.9
			c-1.2-1.2-1.8-2.7-1.8-4.5c0-2.6,0.8-4.6,2.4-5.9c1.6-1.4,3.7-2,6.4-2c3,0,5.5,0.8,7.3,2.3c1.8,1.5,2.8,3.4,3,5.8h14.9
			c-0.5-6.1-2.9-10.8-7.2-14.2c-4.4-3.4-10-5.1-17-5.1c-4.7,0-8.8,0.8-12.4,2.4c-3.6,1.6-6.4,3.9-8.4,6.8c-2,3-3,6.5-3,10.5
			c0,4.3,1,7.7,3,10.2c2,2.6,4.3,4.5,7.1,5.7c2.8,1.3,6.3,2.5,10.7,3.8c3.2,0.9,5.8,1.7,7.6,2.5c1.8,0.7,3.4,1.8,4.6,3.1
			c1.2,1.3,1.8,2.9,1.8,5c0,2.5-0.9,4.5-2.7,6c-1.8,1.5-4.3,2.3-7.5,2.3c-3.1,0-5.5-0.8-7.3-2.4c-1.8-1.6-2.8-3.8-3-6.6h-14.6
			c0.1,4.1,1.2,7.7,3.4,10.8c2.2,3,5.2,5.4,9,7c3.8,1.6,8,2.4,12.8,2.4c5,0,9.3-0.9,12.9-2.8c3.6-1.8,6.4-4.3,8.3-7.4
			c1.9-3.1,2.8-6.5,2.8-10.1c0-4.2-1-7.6-3-10.2C1342.9,1231.9,1340.5,1230,1337.8,1228.7z"/>
	</g>
	<g>
		<path d="M394.7,983.5H353c-6.3,0-12.1,1.7-17.3,5.2c-7.8,5.4-11.7,12.6-11.7,21.7v125.9h30.8V1010h39.8c4.3,0,8.2,0.6,11.9,1.8
			c10.9,3.6,16.3,11.5,16.3,23.5v5.8c0,4.6-0.9,8.6-2.6,12.3c-4.4,8.7-12.9,13.1-25.5,13.1h-21.3l-16.5,26.5h37.8
			c14.9,0,27.7-3.8,38.4-11.3c13.8-9.8,20.7-23.3,20.7-40.6v-5.8c0-13.9-4.8-25.7-14.3-35.2C428.2,989.1,413.3,983.5,394.7,983.5z"
			/>
		<rect x="476.7" y="983.5" width="30.8" height="152.8"/>
		<polygon points="629.7,1059.9 678.4,983.5 643.4,983.5 604.8,1046.4 566.4,983.5 531.4,983.5 580.1,1059.9 529.4,1136.3 
			564.4,1136.3 604.8,1073.4 645.4,1136.3 680.4,1136.3 		"/>
		<path d="M808.5,1010l14.5-26.5h-95.1c-6.4,0-12.3,1.8-17.5,5.4c-7.8,5.4-11.7,12.5-11.7,21.5v98.9c0,5.8,1.9,11.1,5.6,15.9
			c5.9,7.4,13.7,11.1,23.5,11.1H823l-14.5-26.5h-78.8V1074h72.6v-26.5h-72.6V1010H808.5z"/>
		<path d="M876.4,1109.8V983.5h-30.8v125.9c0,5.8,1.8,11,5.4,15.7c5.8,7.5,13.6,11.3,23.5,11.3h88.9l-14.3-26.5H876.4z"/>
		<linearGradient id="SVGID_18_" gradientUnits="userSpaceOnUse" x1="992.2376" y1="1139.1202" x2="1014.2851" y2="976.7708">
			<stop  offset="4.049120e-07" style="stop-color:#3F00E9"/>
			<stop  offset="1" style="stop-color:#C947FF"/>
		</linearGradient>
		<path class="st17" d="M1013.4,1105.3l-42.6-121.9h-33l45,127.9c6.4,17.8,16.6,26.8,30.6,26.9c13.9-0.1,24.2-9.1,30.8-26.9
			l44.8-127.9h-33L1013.4,1105.3z"/>
		<linearGradient id="SVGID_19_" gradientUnits="userSpaceOnUse" x1="1155.1274" y1="1161.2411" x2="1177.1768" y2="998.8781">
			<stop  offset="4.049120e-07" style="stop-color:#3F00E9"/>
			<stop  offset="1" style="stop-color:#C947FF"/>
		</linearGradient>
		<path class="st18" d="M1214.8,1109.8H1136V1074h72.6v-26.5H1136V1010h78.8l14.5-26.5h-95.1c-6.4,0-12.3,1.8-17.5,5.4
			c-7.8,5.4-11.7,12.5-11.7,21.5v98.9c0,5.8,1.9,11.1,5.6,15.9c5.9,7.4,13.7,11.1,23.5,11.1h95.1L1214.8,1109.8z"/>
		<linearGradient id="SVGID_20_" gradientUnits="userSpaceOnUse" x1="1303.3972" y1="1181.3766" x2="1325.4465" y2="1019.0134">
			<stop  offset="4.049120e-07" style="stop-color:#3F00E9"/>
			<stop  offset="1" style="stop-color:#C947FF"/>
		</linearGradient>
		<path class="st19" d="M1360.6,1081.8c13.8-9.7,20.7-23.2,20.7-40.6v-5.8c0-13.9-4.8-25.7-14.3-35.2
			c-11.3-11.1-26.2-16.7-44.8-16.7h-41.6c-6.3,0-12.1,1.7-17.3,5.2c-7.8,5.4-11.7,12.6-11.7,21.7v125.9h30.8V1010h39.8
			c4.3,0,8.2,0.6,11.9,1.8c10.9,3.6,16.3,11.5,16.3,23.5v5.8c0,4.6-0.9,8.6-2.6,12.3c-4.4,8.7-12.9,13.1-25.5,13.1h-21.3l-16.5,26.5
			h23.7l38.2,43.2h38.4l-41.4-46.2C1349.6,1088.2,1355.4,1085.4,1360.6,1081.8z"/>
		<linearGradient id="SVGID_21_" gradientUnits="userSpaceOnUse" x1="1446.252" y1="1200.7766" x2="1468.3013" y2="1038.4135">
			<stop  offset="4.049120e-07" style="stop-color:#3F00E9"/>
			<stop  offset="1" style="stop-color:#C947FF"/>
		</linearGradient>
		<path class="st20" d="M1509.2,1060.9c-8-5-22.1-10.1-42.2-15.3c-8.3-2.1-14.2-3.8-17.7-5c-11.1-3.8-16.7-8.2-16.7-13.5
			c0-2.9,1.1-5.8,3.4-8.6c5.1-5.6,12.7-8.4,22.7-8.4h20.5c0.9,0,1.9,0.1,2.8,0.2c7.6,0.9,13.7,4.5,18.1,10.7l26.9-20.7
			c-3-2.8-6.8-5.5-11.7-8c-11.7-5.8-23.7-8.6-36.2-8.6h-20.5c-15.4,0-28.7,4.1-39.8,12.3c-11.5,8.6-17.3,19-17.3,31.4
			c0,8.7,2.9,16.3,8.8,22.7c7.4,7.8,21.3,14.4,41.8,19.9c17.8,4.8,27.5,7.6,29.2,8.2c11.1,3.9,16.7,8.8,16.7,14.7
			c0,3-1.2,5.8-3.6,8.4c-5.5,5.8-13.7,8.6-24.5,8.6h-20.5c-1.1,0-2.3-0.1-3.6-0.2c-8.4-1.1-15-4.6-19.7-10.5l-26.5,20.5
			c2.9,2.8,7,5.5,12.1,8c12.2,5.8,24.8,8.6,37.8,8.6h20.5c16,0,29.8-4.2,41.4-12.5c11.8-8.6,17.7-19,17.7-31.2
			C1529,1079.5,1522.4,1069,1509.2,1060.9z"/>
		<linearGradient id="SVGID_22_" gradientUnits="userSpaceOnUse" x1="1593.6299" y1="1220.7909" x2="1615.6792" y2="1058.4277">
			<stop  offset="4.049120e-07" style="stop-color:#3F00E9"/>
			<stop  offset="1" style="stop-color:#C947FF"/>
		</linearGradient>
		<path class="st21" d="M1582.6,1109.8V1074h72.6v-26.5h-72.6V1010h78.8l14.5-26.5h-95.1c-6.4,0-12.3,1.8-17.5,5.4
			c-7.8,5.4-11.7,12.5-11.7,21.5v98.9c0,5.8,1.9,11.1,5.6,15.9c5.9,7.4,13.7,11.1,23.5,11.1h95.1l-14.5-26.5H1582.6z"/>
	</g>
</g>
</svg>
